<svg width="33" height="33" viewBox="0 0 33 33" fill="none" xmlns="http://www.w3.org/2000/svg">
<g clip-path="url(#clip0_4_1076)">
<g clip-path="url(#clip1_4_1076)">
<g clip-path="url(#clip2_4_1076)">
<path d="M32.8097 16.9072C32.8097 8.07067 25.6463 0.907227 16.8097 0.907227C7.97313 0.907227 0.809692 8.07067 0.809692 16.9072C0.809692 24.8932 6.66066 31.5126 14.3097 32.7129V21.5322H10.2472V16.9072H14.3097V13.3823C14.3097 9.37223 16.6984 7.15723 20.3531 7.15723C22.1036 7.15723 23.9347 7.46973 23.9347 7.46973V11.4072H21.9171C19.9296 11.4072 19.3097 12.6406 19.3097 13.9059V16.9072H23.7472L23.0378 21.5322H19.3097V32.7129C26.9587 31.5126 32.8097 24.8932 32.8097 16.9072Z" fill="#1877F2"/>
<path d="M23.0378 21.5322L23.7472 16.9073H19.3097V13.9059C19.3097 12.6405 19.9296 11.4072 21.9171 11.4072H23.9347V7.46973C23.9347 7.46973 22.1036 7.15723 20.3531 7.15723C16.6984 7.15723 14.3097 9.37223 14.3097 13.3822V16.9073H10.2472V21.5322H14.3097V32.7129C15.1243 32.8406 15.9592 32.9073 16.8097 32.9073C17.6602 32.9073 18.4951 32.8406 19.3097 32.7129V21.5322H23.0378Z" fill="white"/>
</g>
</g>
</g>
<defs>
<clipPath id="clip0_4_1076">
<rect width="32" height="32" fill="white" transform="translate(0.809692 0.907227)"/>
</clipPath>
<clipPath id="clip1_4_1076">
<rect width="32" height="32" fill="white" transform="translate(0.809692 0.907227)"/>
</clipPath>
<clipPath id="clip2_4_1076">
<rect width="32" height="32" fill="white" transform="translate(0.809692 0.907227)"/>
</clipPath>
</defs>
</svg>
