<svg width="107" height="31" viewBox="0 0 107 31" fill="none" xmlns="http://www.w3.org/2000/svg">
<g clip-path="url(#clip0_4_887)">
<g clip-path="url(#clip1_4_887)">
<g clip-path="url(#clip2_4_887)">
<mask id="mask0_4_887" style="mask-type:luminance" maskUnits="userSpaceOnUse" x="1" y="0" width="106" height="31">
<path d="M106.243 0.817383H1.47668V30.8174H106.243V0.817383Z" fill="white"/>
</mask>
<g mask="url(#mask0_4_887)">
<path fill-rule="evenodd" clip-rule="evenodd" d="M37.6408 17.4346C36.7501 16.9424 36.2814 16.544 36.2814 15.9815C36.2814 15.2549 36.9142 14.8096 37.922 14.8096C39.0939 14.8096 40.1251 15.3018 40.1251 15.3018L40.9454 12.794C40.9454 12.794 40.1954 12.208 37.9689 12.208C34.8751 12.208 32.7189 13.9893 32.7189 16.4737C32.7189 17.8799 33.7267 18.958 35.0626 19.7315C36.1408 20.3408 36.5158 20.7862 36.5158 21.419C36.5158 22.0987 35.9767 22.6377 34.9689 22.6377C33.4689 22.6377 32.0626 21.8643 32.0626 21.8643L31.1954 24.3721C31.1954 24.3721 32.5079 25.2393 34.6876 25.2393C37.8751 25.2393 40.1486 23.669 40.1486 20.8565C40.1954 19.3096 39.0236 18.2315 37.6408 17.4346ZM50.3439 12.1612C48.7736 12.1612 47.5548 12.9112 46.5939 14.0362L46.547 14.0127L47.9064 6.8877H44.3673L40.922 25.0049H44.4611L45.6329 18.8174C46.1017 16.4737 47.297 15.044 48.422 15.044C49.2189 15.044 49.5236 15.583 49.5236 16.3565C49.5236 16.8487 49.4767 17.4346 49.3595 17.9268L48.0236 25.0283H51.5626L52.9454 17.7158C53.1095 16.9424 53.2033 16.0283 53.2033 15.3955C53.2267 13.3565 52.172 12.1612 50.3439 12.1612ZM61.2423 12.1612C56.9767 12.1612 54.1408 16.0049 54.1408 20.294C54.1408 23.0362 55.8283 25.2627 59.0158 25.2627C63.2111 25.2627 66.0236 21.5127 66.0236 17.1299C66.047 14.5752 64.5704 12.1612 61.2423 12.1612ZM59.5079 22.5205C58.2892 22.5205 57.797 21.4893 57.797 20.2002C57.797 18.1612 58.8517 14.8565 60.7736 14.8565C62.0392 14.8565 62.4376 15.9346 62.4376 16.9893C62.4376 19.1924 61.3829 22.5205 59.5079 22.5205ZM75.1173 12.1612C72.7267 12.1612 71.3673 14.2705 71.3673 14.2705H71.3204L71.5314 12.3721H68.3908C68.2267 13.6612 67.9454 15.6065 67.6642 17.083L65.2033 30.0674H68.7423L69.7267 24.8174H69.797C69.797 24.8174 70.5236 25.2862 71.8829 25.2862C76.0548 25.2862 78.7736 21.0205 78.7736 16.708C78.7736 14.294 77.7189 12.1612 75.1173 12.1612ZM71.7423 22.5908C70.8283 22.5908 70.2892 22.0752 70.2892 22.0752L70.8751 18.7705C71.297 16.5674 72.4455 15.0908 73.6642 15.0908C74.7423 15.0908 75.0705 16.0986 75.0705 17.0362C75.0705 19.3096 73.7111 22.5908 71.7423 22.5908ZM83.8361 7.05176C82.7111 7.05176 81.797 7.94238 81.797 9.11426C81.797 10.1689 82.4533 10.8955 83.4611 10.8955H83.508C84.6095 10.8955 85.5705 10.1455 85.5939 8.83301C85.6173 7.80176 84.9142 7.05176 83.8361 7.05176Z" fill="#443FDE"/>
<path fill-rule="evenodd" clip-rule="evenodd" d="M78.8673 25.0049H82.4298L84.8439 12.4424H81.2579L78.8673 25.0049Z" fill="#443FDE"/>
<path fill-rule="evenodd" clip-rule="evenodd" d="M93.8439 12.3955H91.3829L91.5001 11.8096C91.7111 10.5908 92.4142 9.51269 93.6095 9.51269C94.2423 9.51269 94.7345 9.70019 94.7345 9.70019L95.4376 6.93457C95.4376 6.93457 94.8283 6.62988 93.5158 6.62988C92.2501 6.62988 91.0079 6.98144 90.047 7.80176C88.8283 8.833 88.2658 10.3096 87.9845 11.8096L87.8908 12.3955H86.2501L85.7345 15.0674H87.3751L85.5001 24.9815H89.0392L90.9142 15.0674H93.3517L93.8439 12.3955ZM102.375 12.4424C102.375 12.4424 100.149 18.0205 99.1642 21.0674H99.1173C99.047 20.083 98.2501 12.4424 98.2501 12.4424H94.5236L96.6564 23.9736C96.7033 24.2315 96.6798 24.3955 96.5861 24.5596C96.1642 25.3565 95.4845 26.1299 94.6642 26.6924C94.0079 27.1846 93.2579 27.4893 92.672 27.7002L93.6564 30.7002C94.3829 30.5362 95.8595 29.9502 97.1251 28.7783C98.7423 27.2549 100.242 24.9346 101.766 21.7471L106.102 12.4424H102.375ZM18.3517 29.9502L27.1173 28.0518C27.1173 28.0518 23.9533 6.65332 23.9298 6.51269C23.9064 6.37207 23.7892 6.27832 23.672 6.27832C23.5548 6.27832 21.3283 6.11426 21.3283 6.11426C21.3283 6.11426 19.7814 4.56738 19.5939 4.40332C19.547 4.35644 19.5001 4.333 19.4533 4.30957L18.3517 29.9502ZM19.0783 4.26269C19.0548 4.26269 19.0079 4.28613 18.9845 4.28613C18.9611 4.28613 18.6329 4.37988 18.1173 4.54394C17.6017 3.04394 16.6876 1.66113 15.0704 1.66113H14.9298C14.4611 1.07519 13.8986 0.817383 13.4064 0.817383C9.63293 0.817383 7.82824 5.52832 7.26574 7.91894C5.81262 8.36426 4.75793 8.69238 4.64074 8.73926C3.82043 8.99707 3.79699 9.0205 3.70324 9.79394C3.60949 10.3564 1.47668 26.8799 1.47668 26.8799L17.9533 29.9736L19.0783 4.26269ZM14.7892 5.41113V5.57519C13.8751 5.85644 12.8673 6.16113 11.8829 6.46582C12.4454 4.30957 13.5001 3.25488 14.4142 2.85644C14.6486 3.46582 14.7892 4.28613 14.7892 5.41113ZM13.2892 1.82519C13.4533 1.82519 13.6173 1.87207 13.7814 1.98926C12.5861 2.55176 11.2736 3.98144 10.7345 6.84082C9.93762 7.09863 9.16418 7.333 8.43762 7.54394C9.07043 5.36426 10.5939 1.82519 13.2892 1.82519ZM13.9454 14.5518C13.9454 14.5518 12.9611 14.0362 11.7892 14.0362C10.0314 14.0362 9.96106 15.1377 9.96106 15.419C9.96106 16.919 13.8986 17.5049 13.8986 21.044C13.8986 23.833 12.1408 25.6143 9.75012 25.6143C6.89074 25.6143 5.43762 23.833 5.43762 23.833L6.21106 21.3018C6.21106 21.3018 7.71106 22.5908 8.97668 22.5908C9.79699 22.5908 10.1486 21.9346 10.1486 21.4658C10.1486 19.4971 6.91418 19.4033 6.91418 16.169C6.91418 13.4502 8.8595 10.8018 12.8204 10.8018C14.3439 10.8018 15.0939 11.2471 15.0939 11.2471L13.9454 14.5518ZM15.4454 2.69238C16.2892 2.78613 16.8283 3.74707 17.1798 4.82519C16.7579 4.96582 16.2892 5.10644 15.7736 5.2705V4.96582C15.7736 4.05176 15.6564 3.30176 15.4454 2.69238Z" fill="#443FDE"/>
</g>
</g>
</g>
</g>
<defs>
<clipPath id="clip0_4_887">
<rect width="106" height="30" fill="white" transform="translate(0.809692 0.817383)"/>
</clipPath>
<clipPath id="clip1_4_887">
<rect width="106" height="30" fill="white" transform="translate(0.809692 0.817383)"/>
</clipPath>
<clipPath id="clip2_4_887">
<rect width="106" height="30" fill="white" transform="translate(0.809692 0.817383)"/>
</clipPath>
</defs>
</svg>
