<svg width="33" height="33" viewBox="0 0 33 33" fill="none" xmlns="http://www.w3.org/2000/svg">
<g clip-path="url(#clip0_4_1161)">
<g clip-path="url(#clip1_4_1161)">
<g clip-path="url(#clip2_4_1161)">
<mask id="mask0_4_1161" style="mask-type:luminance" maskUnits="userSpaceOnUse" x="2" y="0" width="28" height="33">
<path d="M29.5513 0.907227H2.42543V32.9072H29.5513V0.907227Z" fill="white"/>
</mask>
<g mask="url(#mask0_4_1161)">
<path d="M25.4363 3.3975C23.9598 1.71465 21.2909 0.993164 17.8765 0.993164H7.9671C7.62929 0.993177 7.30256 1.1137 7.04565 1.33306C6.78875 1.55242 6.61852 1.85624 6.56557 2.18988L2.43948 28.3586C2.35747 28.8746 2.75704 29.3418 3.28006 29.3418H9.39779L10.9342 19.5966L10.8865 19.9018C10.996 19.2129 11.5851 18.7048 12.2828 18.7048H15.1899C20.901 18.7048 25.3727 16.3851 26.679 9.67481C26.7179 9.47634 26.7515 9.28318 26.7805 9.09446C26.6156 9.00715 26.6156 9.00715 26.7805 9.09446C27.1694 6.61425 26.7778 4.92598 25.4363 3.3975Z" fill="#27346A"/>
<path d="M13.2751 8.201C13.4423 8.12137 13.6253 8.0801 13.8105 8.08021H21.5793C22.4993 8.08021 23.3573 8.14007 24.1414 8.26628C24.3608 8.30126 24.5791 8.34303 24.7959 8.39153C25.1033 8.45933 25.407 8.54234 25.7061 8.64021C26.0916 8.76895 26.4506 8.91889 26.7806 9.09446C27.1694 6.6133 26.7778 4.92598 25.4363 3.3975C23.9589 1.71465 21.2909 0.993164 17.8765 0.993164H7.96626C7.26851 0.993164 6.67492 1.50114 6.56557 2.18988L2.43948 28.3576C2.35747 28.8745 2.75704 29.3411 3.27921 29.3411H9.39779L12.5854 9.1271C12.6167 8.92841 12.6959 8.74031 12.816 8.57899C12.9362 8.41768 13.0937 8.28795 13.2751 8.201Z" fill="#27346A"/>
<path d="M26.6798 9.67507C25.3735 16.3844 20.9019 18.7051 15.1907 18.7051H12.2827C11.5851 18.7051 10.9958 19.2132 10.8874 19.902L8.97602 32.0192C8.9046 32.4707 9.25383 32.88 9.71074 32.88H14.8678C15.1632 32.8799 15.449 32.7744 15.6735 32.5825C15.8981 32.3906 16.0469 32.1249 16.0931 31.833L16.1433 31.5703L17.1152 25.4101L17.1779 25.0697C17.224 24.7779 17.3727 24.5122 17.5973 24.3203C17.8219 24.1284 18.1076 24.0229 18.403 24.0228H19.1748C24.1705 24.0228 28.0822 21.9932 29.2253 16.1235C29.7024 13.6705 29.4556 11.6225 28.1934 10.184C27.8106 9.74828 27.3351 9.38844 26.7813 9.09473C26.7513 9.2844 26.7188 9.4766 26.6798 9.67507Z" fill="#2790C3"/>
<path d="M25.4134 8.54937C25.2098 8.4899 25.0042 8.43725 24.797 8.3915C24.5801 8.3438 24.3618 8.30231 24.1425 8.2671C23.3575 8.14005 22.5001 8.08008 21.5793 8.08008H13.8114C13.6261 8.07966 13.443 8.12128 13.276 8.20183C13.0945 8.2885 12.9367 8.41814 12.8165 8.57951C12.6963 8.74088 12.6173 8.92911 12.5862 9.12792L10.9352 19.5966L10.8875 19.9017C10.9961 19.2129 11.5852 18.7048 12.283 18.7048H15.1909C20.902 18.7048 25.3738 16.3851 26.6801 9.67478C26.7189 9.47631 26.7515 9.284 26.7815 9.09444C26.4507 8.91981 26.0926 8.76893 25.7071 8.64103C25.6098 8.60878 25.5118 8.57822 25.4134 8.54937Z" fill="#1F264F"/>
</g>
</g>
</g>
</g>
<defs>
<clipPath id="clip0_4_1161">
<rect width="32" height="32" fill="white" transform="translate(0.139709 0.907227)"/>
</clipPath>
<clipPath id="clip1_4_1161">
<rect width="32" height="32" fill="white" transform="translate(0.139709 0.907227)"/>
</clipPath>
<clipPath id="clip2_4_1161">
<rect width="27.4286" height="32" fill="white" transform="translate(2.42543 0.907227)"/>
</clipPath>
</defs>
</svg>
