<svg width="169" height="40" viewBox="0 0 169 40" fill="none" xmlns="http://www.w3.org/2000/svg">
<g clip-path="url(#clip0_4_1641)">
<g clip-path="url(#clip1_4_1641)">
<g clip-path="url(#clip2_4_1641)">
<path fill-rule="evenodd" clip-rule="evenodd" d="M9.82449 3.33789V40.8379H-0.190308V3.33789H9.82449Z" fill="#443FDE"/>
<path fill-rule="evenodd" clip-rule="evenodd" d="M14.8319 3.33789H36.1134C43.0272 3.33789 48.6319 8.93433 48.6319 15.8379C48.6319 22.7415 43.0272 28.3379 36.1134 28.3379H24.8467V40.8379H14.8319V3.33789ZM24.8467 18.3379H36.1134C37.4962 18.3379 38.6171 17.2186 38.6171 15.8379C38.6171 14.4572 37.4962 13.3379 36.1134 13.3379H24.8467V18.3379Z" fill="#443FDE"/>
<path fill-rule="evenodd" clip-rule="evenodd" d="M86.1875 3.33789V22.7129C86.1875 27.2002 89.8305 30.8379 94.3245 30.8379C98.8185 30.8379 102.462 27.2002 102.462 22.7129V3.33789H112.477V22.7129C112.477 32.7231 104.35 40.8379 94.3245 40.8379C84.2995 40.8379 76.1727 32.7231 76.1727 22.7129V3.33789H86.1875Z" fill="#443FDE"/>
<path fill-rule="evenodd" clip-rule="evenodd" d="M52.3875 20.8379C52.3875 11.1729 60.2341 3.33789 69.9134 3.33789H72.4171V13.3379H69.9134C65.7651 13.3379 62.4023 16.6958 62.4023 20.8379V22.0879C62.4023 32.4432 53.9952 40.8379 43.6245 40.8379H42.3727V30.8379H43.6245C48.4642 30.8379 52.3875 26.9204 52.3875 22.0879V20.8379Z" fill="#443FDE"/>
<path d="M168.81 4.58789C168.81 6.65896 167.129 8.33789 165.054 8.33789C162.98 8.33789 161.299 6.65896 161.299 4.58789C161.299 2.51682 162.98 0.837891 165.054 0.837891C167.129 0.837891 168.81 2.51682 168.81 4.58789Z" fill="#443FDE"/>
<path d="M123.23 40.8378L128.009 20.8559L131.562 32.8771C133.68 40.0469 143.851 40.0469 145.97 32.8771L149.522 20.8559L154.301 40.8378H164.597L157.083 9.41726C155.296 1.94521 144.751 1.66856 142.573 9.03668L138.766 21.9211L134.958 9.0367C132.781 1.6686 122.235 1.94518 120.448 9.41726L112.934 40.8378H123.23Z" fill="#443FDE"/>
</g>
</g>
</g>
<defs>
<clipPath id="clip0_4_1641">
<rect width="169" height="40" fill="white"/>
</clipPath>
<clipPath id="clip1_4_1641">
<rect width="169" height="40" fill="white"/>
</clipPath>
<clipPath id="clip2_4_1641">
<rect width="169" height="40" fill="white"/>
</clipPath>
</defs>
</svg>
