<svg width="25" height="25" viewBox="0 0 25 25" fill="none" xmlns="http://www.w3.org/2000/svg">
<path d="M19.25 6.75H5.75C5.54688 6.75 5.37109 6.82422 5.22266 6.97266C5.07422 7.12109 5 7.29688 5 7.5V8.25C5 8.45312 5.07422 8.62891 5.22266 8.77734C5.37109 8.92578 5.54688 9 5.75 9H19.25C19.4531 9 19.6289 8.92578 19.7773 8.77734C19.9258 8.62891 20 8.45312 20 8.25V7.5C20 7.29688 19.9258 7.12109 19.7773 6.97266C19.6289 6.82422 19.4531 6.75 19.25 6.75ZM19.25 11.25H5.75C5.54688 11.25 5.37109 11.3242 5.22266 11.4727C5.07422 11.6211 5 11.7969 5 12V12.75C5 12.9531 5.07422 13.1289 5.22266 13.2773C5.37109 13.4258 5.54688 13.5 5.75 13.5H19.25C19.4531 13.5 19.6289 13.4258 19.7773 13.2773C19.9258 13.1289 20 12.9531 20 12.75V12C20 11.7969 19.9258 11.6211 19.7773 11.4727C19.6289 11.3242 19.4531 11.25 19.25 11.25ZM19.25 15.75H5.75C5.54688 15.75 5.37109 15.8242 5.22266 15.9727C5.07422 16.1211 5 16.2969 5 16.5V17.25C5 17.4531 5.07422 17.6289 5.22266 17.7773C5.37109 17.9258 5.54688 18 5.75 18H19.25C19.4531 18 19.6289 17.9258 19.7773 17.7773C19.9258 17.6289 20 17.4531 20 17.25V16.5C20 16.2969 19.9258 16.1211 19.7773 15.9727C19.6289 15.8242 19.4531 15.75 19.25 15.75Z" fill="#030407"/>
</svg>
