<svg width="24" height="25" viewBox="0 0 24 25" fill="none" xmlns="http://www.w3.org/2000/svg">
<g clip-path="url(#clip0_4_5819)">
<path d="M12.028 2.18999L12.2832 2.19468C16.8591 2.34566 20.5148 6.12191 20.4992 10.7426L20.499 10.845C20.447 13.6013 19.0679 16.3152 16.7798 18.7373C15.6509 19.913 14.3904 20.9539 13.0233 21.8393L13.0332 21.832L12.9851 21.8728C12.4385 22.2654 11.7143 22.2935 11.1424 21.9569L11.0133 21.8728L10.953 21.8254L10.5395 21.5471C8.82237 20.3633 7.29307 18.9271 6.00619 17.2908L5.68954 16.8776C4.34133 15.1106 3.57588 12.966 3.49927 10.7162L3.50389 10.4313C3.65436 5.84134 7.41903 2.17438 12.028 2.18999ZM12.023 3.70745L11.7827 3.7107C8.03458 3.82497 5.02485 6.9022 5.01201 10.6899L5.0311 11.0469C5.16102 12.8274 5.80645 14.5342 6.89563 15.9617C8.24784 17.7731 9.90723 19.3315 11.7979 20.566L11.8802 20.628C11.9485 20.6874 12.0498 20.6874 12.1182 20.628L12.2028 20.5644C13.472 19.7425 14.6422 18.7763 15.6858 17.6891C17.7327 15.5225 18.9426 13.1414 18.9864 10.8306L18.9832 10.4991C18.8692 6.73941 15.8014 3.72038 12.023 3.70745ZM11.9992 7.59123C13.7876 7.59123 15.2374 9.04548 15.2374 10.8394C15.2374 12.6334 13.7876 14.0875 11.9992 14.0875C10.2108 14.0875 8.76102 12.6334 8.76102 10.8394C8.76102 9.04548 10.2108 7.59123 11.9992 7.59123ZM11.9992 9.10865C11.0463 9.10865 10.2738 9.88354 10.2738 10.8394C10.2738 11.7953 11.0463 12.5701 11.9992 12.5701C12.9521 12.5701 13.7246 11.7953 13.7246 10.8394C13.7246 9.88354 12.9521 9.10865 11.9992 9.10865Z" fill="#6D7D93"/>
</g>
<defs>
<clipPath id="clip0_4_5819">
<rect width="24" height="24" fill="white" transform="translate(0 0.189941)"/>
</clipPath>
</defs>
</svg>
