<svg width="24" height="25" viewBox="0 0 24 25" fill="none" xmlns="http://www.w3.org/2000/svg">
<g clip-path="url(#clip0_4_1352)">
<g clip-path="url(#clip1_4_1352)">
<path d="M5.11738 9.62594C5.11738 7.47992 6.8738 5.74023 9.04046 5.74023C11.2071 5.74023 12.9635 7.47992 12.9635 9.62594C12.9635 11.772 11.2071 13.5117 9.04046 13.5117C6.8738 13.5117 5.11738 11.772 5.11738 9.62594Z" fill="#1552F0"/>
<path d="M6.56092 15.2664L6.72532 15.2404C8.25904 14.998 9.82189 14.998 11.3556 15.2404L11.52 15.2664C13.6811 15.608 15.2712 17.4543 15.2712 19.6219C15.2712 20.7919 14.3137 21.7403 13.1325 21.7403H4.94843C3.76724 21.7403 2.80969 20.7919 2.80969 19.6219C2.80969 17.4543 4.39985 15.608 6.56092 15.2664Z" fill="#1552F0"/>
<path d="M14.5789 5.74023C14.1966 5.74023 13.8866 6.04723 13.8866 6.42594C13.8866 6.80465 14.1966 7.11166 14.5789 7.11166C15.9809 7.11166 17.1174 8.23734 17.1174 9.62594C17.1174 11.0145 15.9809 12.1403 14.5789 12.1403C14.1966 12.1403 13.8866 12.4473 13.8866 12.826C13.8866 13.2047 14.1966 13.5117 14.5789 13.5117C16.7456 13.5117 18.502 11.772 18.502 9.62594C18.502 7.47992 16.7456 5.74023 14.5789 5.74023Z" fill="#1552F0"/>
<path d="M15.7246 15.2314C15.3423 15.2314 15.0323 15.5384 15.0323 15.9171C15.0323 16.2958 15.3423 16.6028 15.7246 16.6028H16.6183C16.6926 16.6028 16.767 16.6086 16.8403 16.6202C18.3294 16.8556 19.4251 18.1278 19.4251 19.6214C19.4251 20.0339 19.0875 20.3683 18.671 20.3683H16.785C16.4026 20.3683 16.0927 20.6754 16.0927 21.0541C16.0927 21.4328 16.4026 21.7398 16.785 21.7398H18.671C19.8522 21.7398 20.8097 20.7914 20.8097 19.6214C20.8097 17.4538 19.2195 15.6075 17.0585 15.2659C16.9129 15.2429 16.7656 15.2314 16.6183 15.2314H15.7246Z" fill="#1552F0"/>
</g>
</g>
<defs>
<clipPath id="clip0_4_1352">
<rect width="24" height="24" fill="white" transform="translate(0 0.902344)"/>
</clipPath>
<clipPath id="clip1_4_1352">
<rect width="24" height="24" fill="white" transform="translate(0 0.902344)"/>
</clipPath>
</defs>
</svg>
